<?xml version="1.0" standalone="no"?>
<!DOCTYPE svg PUBLIC "-//W3C//DTD SVG 20010904//EN"
 "http://www.w3.org/TR/2001/REC-SVG-20010904/DTD/svg10.dtd">
<svg version="1.0" xmlns="http://www.w3.org/2000/svg"
 width="584.000000pt" height="584.000000pt" viewBox="0 0 584.000000 584.000000"
 preserveAspectRatio="xMidYMid meet">
<metadata>
Created by potrace 1.14, written by Peter Selinger 2001-2017
</metadata>
<g transform="translate(0.000000,584.000000) scale(0.100000,-0.100000)"
fill="#000000" stroke="none">
<path d="M2778 4678 l-3 -273 -255 -5 -255 -5 -3 -62 -3 -63 258 -2 258 -3 3
-615 c1 -338 0 -621 -3 -628 -3 -9 -19 -6 -61 13 -146 65 -298 98 -523 115
-228 18 -538 -11 -719 -66 -383 -116 -811 -109 -1352 21 -89 22 150 -99 278
-140 157 -51 255 -66 452 -72 140 -4 213 -1 300 11 140 20 307 59 358 85 20
10 80 29 132 42 89 22 114 24 390 24 295 0 426 -9 635 -43 55 -9 132 -17 170
-17 67 0 72 2 136 47 85 61 213 122 314 150 66 18 107 22 230 22 144 0 157 -2
315 -43 91 -23 235 -62 320 -86 254 -72 367 -85 849 -94 272 -5 345 -9 349
-19 3 -11 -54 -12 -314 -8 l-319 5 265 -19 c146 -10 298 -19 338 -19 46 -1 71
-5 67 -11 -4 -7 -98 -8 -273 -4 -147 3 -265 4 -262 1 3 -2 97 -10 210 -16 319
-18 370 -22 370 -32 0 -5 -95 -10 -217 -10 l-218 -2 232 -16 c127 -9 235 -19
239 -23 4 -5 5 -8 3 -9 -22 -3 -1489 -28 -1663 -29 -126 0 -227 -3 -223 -6 6
-6 223 -14 942 -34 215 -6 588 -17 829 -25 242 -8 442 -13 444 -11 2 3 -4 29
-14 60 l-18 56 -111 0 c-128 0 -115 -7 -217 128 l-55 73 -274 3 c-395 5 -680
44 -965 131 -454 140 -469 144 -594 151 -83 5 -124 3 -186 -11 -135 -29 -274
-104 -391 -209 -43 -38 -52 -43 -56 -29 -2 10 -4 286 -3 613 l1 595 253 3 253
2 -3 63 -3 62 -250 5 -250 5 -3 273 -2 272 -65 0 -65 0 -2 -272z"/>
<path d="M3063 4864 c23 -77 39 -198 41 -304 l3 -125 126 -3 c146 -3 139 -8
106 91 -47 142 -153 287 -248 341 -32 18 -33 18 -28 0z"/>
<path d="M3026 4177 c-15 -29 -41 -67 -57 -85 -27 -28 -29 -37 -29 -105 0 -41
3 -128 7 -195 6 -114 7 -121 25 -111 39 21 223 207 269 272 47 68 101 182 114
245 l7 32 -155 0 -155 0 -26 -53z"/>
<path d="M3395 4185 c-83 -223 -157 -329 -386 -559 l-69 -69 0 -136 0 -135 38
36 c20 20 98 81 172 135 74 55 161 128 192 161 139 151 172 348 88 527 -23 50
-29 57 -35 40z"/>
<path d="M2669 3807 c-104 -119 -162 -226 -180 -333 -25 -142 36 -273 168
-365 23 -16 44 -29 47 -29 3 0 6 29 6 64 0 35 4 66 9 68 21 7 23 648 2 648 -3
0 -27 -24 -52 -53z"/>
<path d="M1740 3289 c-127 -11 -229 -33 -374 -80 -66 -21 -159 -46 -206 -54
-216 -37 -498 -45 -750 -21 -80 8 -146 13 -148 12 -8 -8 114 -49 202 -68 85
-17 135 -21 316 -21 259 0 411 18 628 74 84 22 199 46 255 54 132 19 398 19
557 0 111 -13 310 -47 358 -61 63 -19 -119 64 -201 91 -131 43 -229 63 -375
75 -129 11 -128 11 -262 -1z"/>
<path d="M1952 3009 c-113 -11 -239 -36 -392 -77 -93 -25 -393 -91 -419 -92
-3 0 3 -7 13 -15 49 -37 407 -4 590 54 200 64 379 85 651 77 169 -5 177 -4
135 10 -127 41 -397 62 -578 43z"/>
<path d="M1888 2607 c20 -22 22 -33 22 -163 0 -110 -3 -144 -16 -162 l-15 -22
139 0 c155 0 152 -1 152 68 l-1 37 -13 -31 c-8 -17 -24 -39 -37 -48 -32 -22
-101 -21 -130 3 -23 19 -24 24 -24 161 0 137 1 142 24 161 l23 19 -73 0 -72 0
21 -23z"/>
<path d="M2456 2611 c40 -24 65 -80 72 -157 4 -51 1 -71 -18 -109 -13 -26 -37
-56 -54 -67 l-31 -20 29 7 c44 9 83 41 111 89 51 87 21 198 -69 251 -49 29
-87 35 -40 6z"/>
<path d="M2772 2623 c-12 -3 -40 -21 -61 -41 -75 -72 -79 -208 -8 -279 18 -18
47 -35 65 -39 l33 -7 -35 35 c-59 59 -72 158 -32 243 23 50 47 77 76 88 13 5
13 5 0 5 -8 0 -25 -3 -38 -5z"/>
<path d="M2903 2611 c15 -13 36 -39 47 -59 l19 -37 1 50 c0 48 -1 50 -27 51
-16 0 -37 4 -48 9 -13 5 -11 1 8 -14z"/>
<path d="M3157 2601 c-58 -37 -87 -91 -87 -161 0 -80 44 -143 125 -175 l40
-16 -33 26 c-54 44 -75 96 -70 180 3 58 9 80 31 114 15 23 38 46 50 51 14 5
16 9 6 9 -8 1 -36 -12 -62 -28z"/>
<path d="M3305 2621 c70 -31 108 -165 76 -264 -7 -21 -31 -53 -54 -73 l-42
-36 40 17 c92 37 147 135 124 219 -19 72 -74 128 -135 141 -22 4 -24 3 -9 -4z"/>
<path d="M3559 2601 c-22 -23 -29 -39 -29 -68 0 -46 22 -73 81 -103 22 -12 49
-30 59 -40 27 -27 26 -84 -1 -111 -27 -27 -21 -31 17 -13 37 18 54 51 54 102
0 51 -21 77 -90 112 -81 41 -103 87 -60 130 11 11 15 20 9 20 -6 0 -24 -13
-40 -29z"/>
<path d="M2272 2585 c-57 -50 -81 -122 -62 -191 15 -54 68 -113 118 -131 18
-6 32 -7 32 -3 0 5 -9 12 -20 15 -11 3 -32 26 -46 51 -45 76 -36 198 18 259
40 47 15 46 -40 0z"/>
<path d="M3689 2594 c12 -15 21 -33 21 -40 0 -8 4 -14 8 -14 5 0 8 18 8 40 -1
37 -3 40 -29 40 l-28 0 20 -26z"/>
<path d="M2900 2389 c0 -5 5 -9 10 -9 6 0 10 -18 10 -39 0 -31 -6 -44 -26 -60
-33 -26 -14 -27 43 -3 41 16 43 19 43 60 0 23 5 42 10 42 6 0 10 4 10 9 0 4
-22 8 -50 8 -27 0 -50 -4 -50 -8z"/>
<path d="M3520 2318 c0 -41 3 -48 19 -48 11 0 28 -3 38 -6 17 -5 17 -5 0 6
-11 7 -27 31 -38 54 l-19 41 0 -47z"/>
<path d="M2828 2253 c7 -3 16 -2 19 1 4 3 -2 6 -13 5 -11 0 -14 -3 -6 -6z"/>
<path d="M2947 2133 c-2 -4 -4 -48 -4 -97 0 -75 -3 -90 -18 -99 -10 -5 -34
-24 -54 -43 -27 -23 -41 -30 -51 -23 -30 18 -43 11 -36 -22 3 -18 1 -38 -5
-45 -20 -24 -32 -16 -25 17 15 77 -58 119 -102 59 -34 -45 -81 -65 -144 -61
-10 1 -18 9 -18 19 0 45 117 110 225 125 l75 11 0 36 c0 41 -16 53 -86 66 -36
7 -37 6 -30 -17 4 -13 8 -29 9 -35 1 -6 -40 -39 -91 -73 -108 -73 -127 -96
-118 -145 15 -82 90 -111 143 -56 33 35 43 37 43 11 0 -23 -46 -81 -64 -81
-24 0 -47 -26 -56 -64 -16 -71 9 -81 77 -30 17 13 34 24 36 24 2 0 2 -22 -1
-48 -5 -55 18 -112 45 -112 13 0 15 10 9 70 -4 39 -4 91 0 116 6 44 58 134 81
141 6 2 14 -14 18 -36 4 -23 11 -43 16 -47 5 -3 9 -13 9 -23 0 -27 26 -44 65
-43 l35 1 0 -62 c1 -107 25 -271 40 -262 12 7 21 78 29 223 7 121 17 167 28
135 7 -20 38 -15 66 11 33 30 97 157 97 192 0 18 -12 38 -37 61 -34 33 -40 35
-85 29 l-48 -7 0 68 c0 37 -6 79 -13 93 -12 24 -50 39 -60 23z m143 -228 c14
-16 8 -61 -16 -137 -16 -49 -20 -53 -48 -42 -23 9 -20 24 10 55 29 31 27 58
-6 66 -23 6 -29 58 -7 66 24 10 55 7 67 -8z m-160 -50 c0 -25 -29 -45 -66 -45
-25 0 -15 39 14 54 39 22 52 19 52 -9z m-39 -106 c16 -8 18 -13 8 -25 -18 -22
-39 -17 -39 11 0 28 3 29 31 14z"/>
<path d="M3766 2133 c34 -7 37 -42 7 -100 -14 -29 -34 -60 -44 -68 -16 -15
-17 -12 -24 43 -4 40 -3 68 5 82 17 32 5 35 -18 5 -17 -21 -26 -25 -44 -19
-13 4 -25 7 -28 8 -8 2 1 -78 12 -99 6 -11 20 -30 32 -43 l21 -23 -25 -19
c-39 -30 -58 -25 -69 18 -6 20 -11 49 -11 64 0 29 -14 45 -25 28 -3 -5 -18
-10 -32 -10 -25 0 -25 -1 -21 -57 3 -32 9 -66 13 -75 5 -13 3 -18 -9 -18 -36
0 -74 -30 -86 -67 -7 -21 -21 -53 -33 -71 -17 -29 -18 -39 -9 -71 6 -20 18
-45 27 -56 13 -17 16 -18 25 -5 5 8 10 26 10 40 0 14 11 48 24 75 28 62 19 57
317 168 60 22 101 18 79 -8 -23 -28 -99 -65 -181 -89 -72 -20 -85 -27 -94 -51
-8 -22 -6 -29 9 -41 16 -11 24 -10 61 11 55 33 78 32 42 0 -17 -17 -27 -36
-27 -55 0 -24 -5 -30 -32 -35 -74 -17 -136 -74 -123 -114 10 -33 64 -91 114
-123 96 -61 156 -22 176 115 6 38 12 48 31 53 75 19 48 94 -40 108 -41 7 -42
12 -8 45 16 17 32 41 36 54 5 22 39 38 134 63 8 3 12 16 10 36 -4 47 -54 78
-124 78 -33 0 -54 4 -54 11 0 6 18 34 41 62 33 43 40 57 35 82 -8 41 -49 75
-89 74 -22 -1 -25 -3 -11 -6z m-222 -302 c5 -8 -72 -61 -88 -61 -16 0 -3 31
20 49 28 22 59 27 68 12z m206 -279 c0 -4 -5 -13 -12 -20 -9 -9 -9 -12 0 -12
17 0 15 -45 -3 -80 -24 -47 -66 -49 -147 -9 -41 21 -50 36 -35 64 14 28 27 35
68 35 20 0 52 7 70 15 38 16 59 19 59 7z"/>
<path d="M914 2082 c3 -9 -3 -32 -14 -49 -20 -34 -94 -93 -115 -93 -28 0 -35
-87 -8 -97 9 -4 30 2 47 12 104 61 185 105 196 105 6 0 -11 -26 -38 -57 -57
-66 -80 -108 -96 -172 -10 -42 -16 -49 -68 -76 -44 -23 -57 -35 -60 -57 -9
-60 23 -61 109 -4 120 79 117 52 -7 -68 -64 -62 -82 -86 -82 -109 -1 -42 22
-52 51 -23 l24 24 41 -21 c57 -30 134 -30 175 1 36 27 47 23 146 -50 71 -52
96 -63 106 -47 9 15 -6 57 -29 83 -9 10 -47 33 -84 52 l-67 34 11 32 c6 18 15
37 19 42 26 29 -19 86 -67 86 -30 0 -30 1 0 45 35 51 46 189 20 235 l-19 32
24 17 c59 39 66 48 53 64 -22 26 -59 28 -119 8 -54 -19 -59 -19 -68 -4 -17 28
-63 73 -75 73 -6 0 -9 -8 -6 -18z m170 -188 c18 -46 -4 -189 -27 -181 -7 2
-11 13 -9 23 14 80 14 81 -13 102 l-27 21 26 26 c29 29 41 31 50 9z m-88 -105
c7 -12 -32 -57 -41 -47 -3 3 -3 17 1 32 6 27 27 35 40 15z m114 -214 c0 -26
-29 -75 -45 -75 -24 0 -65 23 -65 36 0 15 66 53 93 54 9 0 17 -7 17 -15z
m-123 -101 c24 -9 43 -23 43 -30 0 -18 -66 -37 -106 -29 -44 8 -55 32 -25 57
28 22 34 22 88 2z"/>
<path d="M1975 2060 c-3 -5 0 -10 8 -10 24 0 50 -48 42 -78 -10 -39 -67 -119
-137 -193 -55 -58 -72 -70 -133 -89 -38 -13 -98 -36 -132 -51 -34 -16 -69 -29
-78 -29 -18 0 -18 -2 -3 -35 21 -45 77 -37 203 30 112 60 237 105 287 104 l33
0 -45 -19 -45 -19 35 0 c20 -1 63 6 95 15 33 8 76 13 96 11 51 -7 66 5 51 37
-21 47 -56 56 -165 42 -53 -6 -97 -9 -97 -6 0 3 16 23 36 45 133 150 135 173
19 234 -44 23 -61 26 -70 11z"/>
<path d="M4590 2051 c0 -5 7 -14 15 -21 25 -20 29 -50 8 -65 -10 -9 -13 -14
-5 -15 23 0 12 -18 -20 -31 -38 -14 -44 -15 -76 -5 -19 6 -23 4 -22 -11 1 -10
2 -27 1 -38 -1 -18 -2 -18 -18 -2 -15 15 -16 21 -4 50 21 50 24 86 11 102 -20
24 -64 18 -91 -11 -13 -14 -36 -32 -51 -40 -37 -19 -35 -30 8 -51 20 -10 36
-21 35 -26 -1 -4 5 -20 14 -37 8 -16 15 -36 15 -45 0 -28 -30 -15 -47 20 -17
35 -45 46 -59 23 -4 -6 -7 -32 -6 -57 1 -25 -3 -102 -8 -170 -11 -135 -4 -178
35 -227 12 -15 26 -24 32 -21 6 4 14 35 18 69 14 135 37 238 52 238 8 0 20 13
26 30 8 21 16 28 28 25 12 -4 20 1 25 17 4 13 19 41 34 63 25 36 39 45 122 74
51 18 101 35 111 38 27 9 20 -20 -13 -52 -23 -22 -41 -30 -73 -31 -62 -1 -121
-27 -125 -54 -2 -12 1 -27 7 -33 20 -20 12 -36 -29 -59 -33 -19 -40 -28 -40
-54 0 -35 15 -54 44 -54 18 0 17 -3 -10 -31 -16 -17 -41 -38 -56 -47 -15 -8
-30 -27 -33 -40 -13 -53 13 -43 113 42 55 47 106 86 112 86 7 0 1 -19 -15 -45
-20 -35 -25 -56 -23 -92 3 -41 7 -49 36 -66 17 -10 58 -21 90 -24 73 -7 201
14 209 33 6 15 -15 140 -27 163 -5 9 -10 -1 -15 -29 -11 -64 -47 -96 -118
-105 -69 -9 -111 4 -115 34 -2 14 12 48 34 83 32 52 35 64 25 80 -11 17 -9 22
8 34 19 13 21 39 6 64 -3 6 -19 10 -36 10 -16 0 -29 2 -29 5 0 15 82 83 120
99 71 29 75 32 78 58 5 42 -40 70 -107 66 -54 -3 -55 -3 -63 29 -5 18 -18 39
-30 48 -24 16 -108 21 -108 6z m-194 -338 c6 -24 -41 -188 -56 -198 -6 -4 -13
2 -17 11 -7 19 10 145 28 209 11 37 12 38 25 20 8 -11 17 -30 20 -42z m264 -3
c-24 -15 -37 -11 -16 5 11 8 22 12 25 9 3 -3 -1 -9 -9 -14z"/>
<path d="M1907 1995 c-17 -24 -19 -24 -48 -9 -40 20 -64 11 -95 -36 -23 -34
-30 -38 -55 -33 l-30 6 7 -44 c10 -74 24 -107 56 -134 59 -50 88 -12 57 75
-19 56 -24 96 -13 124 10 27 23 18 49 -34 24 -48 49 -70 78 -70 12 0 15 17 14
90 -1 49 -2 90 -2 90 0 0 -8 -12 -18 -25z"/>
<path d="M2030 1585 c0 -3 7 -17 16 -30 18 -28 12 -45 -17 -45 -10 0 -19 -3
-19 -7 1 -12 105 -93 119 -93 15 0 31 43 31 82 0 41 -59 98 -101 98 -16 0 -29
-2 -29 -5z"/>
<path d="M1780 1530 c-67 -35 -78 -36 -89 -7 -9 22 -9 22 -20 -6 -14 -36 1
-99 30 -128 27 -27 37 -24 54 17 8 20 31 59 51 86 19 27 34 54 32 59 -2 5 -28
-4 -58 -21z"/>
<path d="M800 1211 c0 -5 5 -13 10 -16 6 -3 10 -47 10 -97 0 -71 -4 -96 -17
-110 -15 -17 -14 -18 25 -18 42 0 51 7 32 26 -5 5 -11 56 -12 114 -3 100 -4
105 -25 108 -13 2 -23 -1 -23 -7z"/>
<path d="M1700 1210 c0 -5 5 -10 10 -10 6 0 10 5 10 10 0 6 -4 10 -10 10 -5 0
-10 -4 -10 -10z"/>
<path d="M2430 1199 c13 -24 11 -185 -2 -211 -7 -15 -4 -18 24 -18 25 0 29 3
20 12 -8 8 -12 50 -12 125 0 107 -1 113 -20 113 -18 0 -19 -3 -10 -21z"/>
<path d="M2857 1202 c-10 -10 -17 -33 -17 -50 0 -28 7 -36 50 -63 57 -35 72
-69 45 -99 -10 -11 -13 -20 -7 -20 21 0 52 44 52 72 0 32 -27 63 -78 90 -34
18 -43 53 -20 76 7 7 8 12 2 12 -6 0 -18 -8 -27 -18z"/>
<path d="M3830 1210 c0 -5 7 -10 15 -10 8 0 15 5 15 10 0 6 -7 10 -15 10 -8 0
-15 -4 -15 -10z"/>
<path d="M920 1191 c15 -30 12 -59 -10 -81 -19 -19 -19 -20 11 -80 22 -44 35
-60 50 -60 11 0 19 3 17 8 -2 4 -16 31 -31 61 l-28 53 20 22 c27 28 27 72 2
86 -31 16 -43 13 -31 -9z"/>
<path d="M2940 1201 c0 -6 5 -13 10 -16 6 -3 10 1 10 9 0 9 -4 16 -10 16 -5 0
-10 -4 -10 -9z"/>
<path d="M3508 1114 c18 -12 22 -25 22 -68 0 -28 -5 -57 -12 -64 -9 -9 -5 -12
20 -12 30 0 32 2 21 22 -7 12 -9 41 -6 68 5 43 4 48 -19 59 -36 16 -52 14 -26
-5z"/>
<path d="M3625 1049 c0 -74 1 -79 21 -79 19 0 21 5 17 53 -6 74 -11 94 -25
100 -10 3 -13 -15 -13 -74z"/>
<path d="M3840 1121 c-11 -5 -15 -23 -15 -79 0 -66 2 -72 20 -72 19 0 21 5 17
68 -4 89 -5 90 -22 83z"/>
<path d="M4039 1123 c-14 -3 -15 -9 -6 -33 8 -20 8 -42 0 -74 l-10 -46 30 0
c25 0 28 2 17 15 -7 9 -11 37 -8 74 3 64 1 69 -23 64z"/>
<path d="M4615 1122 c-6 -4 -10 -40 -10 -80 0 -69 1 -72 23 -72 15 0 21 4 16
12 -4 7 -7 40 -6 75 1 61 -5 78 -23 65z"/>
<path d="M4675 1116 c11 -8 24 -12 29 -8 5 3 1 9 -10 13 -31 12 -39 10 -19 -5z"/>
<path d="M1150 1100 c-41 -41 -14 -115 45 -126 19 -3 42 -1 52 5 15 10 14 10
-9 5 -40 -9 -81 35 -75 80 2 19 8 39 11 45 11 18 -2 13 -24 -9z"/>
<path d="M1230 1105 c6 -8 9 -19 5 -25 -3 -6 3 -10 14 -10 24 0 25 4 11 31 -6
10 -18 19 -27 19 -12 0 -13 -3 -3 -15z"/>
<path d="M1410 1116 c0 -2 14 -35 30 -72 20 -45 34 -64 41 -57 6 6 3 24 -10
54 -12 24 -21 52 -21 62 0 10 -8 17 -20 17 -11 0 -20 -2 -20 -4z"/>
<path d="M1520 1105 c0 -8 2 -15 4 -15 2 0 6 7 10 15 3 8 1 15 -4 15 -6 0 -10
-7 -10 -15z"/>
<path d="M1688 1098 c9 -26 7 -101 -3 -117 -4 -7 6 -11 26 -11 26 0 30 3 21
12 -7 7 -12 39 -12 75 0 56 -2 63 -20 63 -16 0 -18 -4 -12 -22z"/>
<path d="M1880 1116 c0 -2 11 -28 23 -57 13 -30 27 -63 31 -74 6 -18 8 -18 16
-4 7 11 3 30 -11 59 -11 23 -21 50 -22 61 -1 11 -9 19 -19 19 -10 0 -18 -2
-18 -4z"/>
<path d="M1990 1109 c0 -5 5 -7 10 -4 6 3 10 8 10 11 0 2 -4 4 -10 4 -5 0 -10
-5 -10 -11z"/>
<path d="M2152 1109 c2 -6 8 -10 13 -10 5 0 11 4 13 10 2 6 -4 11 -13 11 -9 0
-15 -5 -13 -11z"/>
<path d="M2228 1053 c2 -59 11 -82 32 -83 6 0 2 94 -6 128 -2 12 -10 22 -17
22 -8 0 -11 -19 -9 -67z"/>
<path d="M3147 1102 c-43 -47 -4 -132 59 -132 l29 1 -32 14 c-36 16 -46 38
-39 94 3 23 4 41 2 41 -2 0 -10 -8 -19 -18z"/>
<path d="M3228 1095 c2 -14 11 -25 18 -25 17 0 18 22 2 38 -19 19 -26 14 -20
-13z"/>
<path d="M3415 1045 l0 -75 28 0 c25 0 27 2 16 22 -7 13 -9 41 -5 75 6 50 5
53 -16 53 -22 0 -23 -4 -23 -75z"/>
<path d="M4135 1045 c0 -71 1 -75 22 -75 20 0 21 3 13 26 -6 14 -10 48 -10 75
0 32 -4 49 -12 49 -9 0 -13 -22 -13 -75z"/>
<path d="M4330 1105 c0 -8 4 -15 9 -15 5 0 11 7 15 15 3 9 0 15 -9 15 -8 0
-15 -7 -15 -15z"/>
<path d="M4405 1054 c1 -45 6 -68 16 -75 20 -13 32 -11 22 4 -4 6 -10 39 -13
71 -7 83 -26 83 -25 0z"/>
<path d="M4863 1045 c29 -70 32 -74 43 -53 9 17 9 24 -1 33 -16 13 -37 74 -29
86 3 5 -6 9 -19 9 l-25 0 31 -75z"/>
<path d="M4940 1104 c0 -8 5 -12 10 -9 6 3 10 10 10 16 0 5 -4 9 -10 9 -5 0
-10 -7 -10 -16z"/>
<path d="M2166 1037 c-24 -17 -18 -61 9 -66 17 -3 18 -1 6 13 -11 13 -11 20 3
41 18 27 10 32 -18 12z"/>
<path d="M4339 1031 c-19 -16 -22 -23 -13 -37 16 -28 37 -31 29 -5 -4 13 -1
28 6 37 19 23 4 27 -22 5z"/>
<path d="M2830 1009 c0 -18 6 -28 20 -32 16 -4 18 -2 10 11 -25 45 -30 48 -30
21z"/>
<path d="M4835 920 c-4 -6 3 -10 14 -10 25 0 27 6 6 13 -8 4 -17 2 -20 -3z"/>
</g>
</svg>
